<mxfile host="app.diagrams.net" agent="Mozilla/5.0 (X11; Ubuntu; Linux x86_64; rv:134.0) Gecko/20100101 Firefox/134.0" version="26.0.11">
  <diagram name="Page-1" id="hFceypMyZpUwmpuC60hw">
    <mxGraphModel dx="1364" dy="795" grid="1" gridSize="10" guides="1" tooltips="1" connect="1" arrows="1" fold="1" page="1" pageScale="1" pageWidth="850" pageHeight="1100" math="0" shadow="0">
      <root>
        <mxCell id="0" />
        <mxCell id="1" parent="0" />
        <mxCell id="Aj9yOCtGMNlafGizxDjU-3" value="" style="edgeStyle=orthogonalEdgeStyle;rounded=0;orthogonalLoop=1;jettySize=auto;html=1;" edge="1" parent="1" source="Aj9yOCtGMNlafGizxDjU-1" target="Aj9yOCtGMNlafGizxDjU-2">
          <mxGeometry relative="1" as="geometry" />
        </mxCell>
        <mxCell id="Aj9yOCtGMNlafGizxDjU-10" style="edgeStyle=orthogonalEdgeStyle;rounded=0;orthogonalLoop=1;jettySize=auto;html=1;" edge="1" parent="1" source="Aj9yOCtGMNlafGizxDjU-1" target="Aj9yOCtGMNlafGizxDjU-5">
          <mxGeometry relative="1" as="geometry" />
        </mxCell>
        <mxCell id="Aj9yOCtGMNlafGizxDjU-1" value="Parse Script to Scene" style="rounded=0;whiteSpace=wrap;html=1;" vertex="1" parent="1">
          <mxGeometry x="300" y="90" width="200" height="60" as="geometry" />
        </mxCell>
        <mxCell id="Aj9yOCtGMNlafGizxDjU-2" value="Parse voice description for speaker in scene" style="rounded=0;whiteSpace=wrap;html=1;" vertex="1" parent="1">
          <mxGeometry x="350" y="320" width="100" height="60" as="geometry" />
        </mxCell>
        <mxCell id="Aj9yOCtGMNlafGizxDjU-4" value="&lt;div&gt;json for scenes&lt;/div&gt;" style="text;html=1;align=center;verticalAlign=middle;whiteSpace=wrap;rounded=0;" vertex="1" parent="1">
          <mxGeometry x="400" y="190" width="60" height="30" as="geometry" />
        </mxCell>
        <mxCell id="Aj9yOCtGMNlafGizxDjU-5" value="&lt;div&gt;Parse narrator dialog&lt;/div&gt;&lt;div&gt;for each scene&lt;br&gt;&lt;/div&gt;" style="rounded=0;whiteSpace=wrap;html=1;" vertex="1" parent="1">
          <mxGeometry x="210" y="320" width="120" height="60" as="geometry" />
        </mxCell>
        <mxCell id="Aj9yOCtGMNlafGizxDjU-6" value="Parse audio/music with timestamps" style="rounded=0;whiteSpace=wrap;html=1;" vertex="1" parent="1">
          <mxGeometry x="460" y="320" width="120" height="60" as="geometry" />
        </mxCell>
        <mxCell id="Aj9yOCtGMNlafGizxDjU-8" style="edgeStyle=orthogonalEdgeStyle;rounded=0;orthogonalLoop=1;jettySize=auto;html=1;entryX=0.667;entryY=0;entryDx=0;entryDy=0;entryPerimeter=0;" edge="1" parent="1" source="Aj9yOCtGMNlafGizxDjU-1" target="Aj9yOCtGMNlafGizxDjU-6">
          <mxGeometry relative="1" as="geometry" />
        </mxCell>
        <mxCell id="Aj9yOCtGMNlafGizxDjU-11" value="&lt;div&gt;Large Context model&lt;/div&gt;" style="text;html=1;align=center;verticalAlign=middle;whiteSpace=wrap;rounded=0;" vertex="1" parent="1">
          <mxGeometry x="610" y="105" width="60" height="30" as="geometry" />
        </mxCell>
        <mxCell id="Aj9yOCtGMNlafGizxDjU-12" value="&lt;div&gt;Small Context model /&lt;/div&gt;&lt;div&gt;Finetuned LLM&lt;br&gt;&lt;/div&gt;" style="text;html=1;align=center;verticalAlign=middle;whiteSpace=wrap;rounded=0;" vertex="1" parent="1">
          <mxGeometry x="640" y="330" width="60" height="30" as="geometry" />
        </mxCell>
      </root>
    </mxGraphModel>
  </diagram>
</mxfile>
